<?xml version="1.0" standalone="no"?>
<!DOCTYPE svg PUBLIC "-//W3C//DTD SVG 20010904//EN"
 "http://www.w3.org/TR/2001/REC-SVG-20010904/DTD/svg10.dtd">
<svg version="1.0" xmlns="http://www.w3.org/2000/svg"
 width="1600.000000pt" height="1600.000000pt" viewBox="0 0 1600.000000 1600.000000"
 preserveAspectRatio="xMidYMid meet">
<metadata>
Created by potrace 1.11, written by Peter Selinger 2001-2013
</metadata>
<g transform="translate(0.000000,1600.000000) scale(0.100000,-0.100000)"
fill="#000000" stroke="none">
<path d="M4069 15996 c-2 -2 -35 -6 -74 -10 -38 -3 -81 -8 -95 -10 -14 -3 -42
-7 -63 -10 -188 -28 -489 -126 -670 -218 -427 -217 -777 -545 -1017 -952 -52
-88 -160 -307 -160 -325 0 -4 -9 -29 -20 -53 -19 -44 -85 -263 -95 -316 -3
-15 -8 -40 -11 -57 -3 -16 -14 -84 -24 -150 -17 -114 -18 -387 -16 -5800 1
-3124 5 -5696 9 -5715 3 -19 9 -51 12 -70 67 -436 252 -849 533 -1190 66 -81
267 -277 347 -341 383 -302 822 -481 1290 -526 99 -10 7623 -10 7721 -1 218
21 436 73 649 153 69 26 282 127 340 162 69 41 172 107 197 127 14 12 41 32
59 46 205 154 403 365 556 594 134 200 289 546 328 736 2 8 8 35 14 60 11 49
18 86 27 139 3 18 7 42 9 52 17 89 20 718 20 4579 0 4272 -1 4397 -19 4475
-44 188 -123 363 -255 565 -41 63 -77 117 -80 120 -3 3 -31 39 -62 80 -112
150 -319 386 -549 623 -170 176 -1193 1194 -1305 1298 -49 46 -290 284 -535
529 -509 508 -634 629 -840 806 -25 22 -47 41 -50 44 -12 13 -211 170 -275
217 -167 122 -366 230 -521 281 -196 66 5 61 -2810 61 -1408 1 -2563 -1 -2565
-3z m4683 -1244 c117 -58 201 -155 251 -289 37 -97 46 -138 67 -292 16 -125
18 -233 19 -1301 2 -1276 0 -1238 61 -1369 70 -148 208 -270 370 -323 73 -25
-5 -23 1720 -32 421 -2 785 -6 810 -10 25 -4 72 -11 105 -17 33 -6 71 -13 85
-15 75 -13 191 -59 259 -102 122 -77 193 -185 219 -337 10 -56 9 -8087 -1
-8160 -60 -450 -372 -829 -809 -983 -47 -17 -112 -35 -145 -41 -32 -6 -74 -13
-93 -17 -47 -9 -7456 -11 -7543 -2 -380 40 -699 235 -905 551 -66 103 -137
265 -156 360 -4 15 -8 38 -11 52 -3 14 -8 37 -12 53 -11 40 -13 11174 -3
11252 76 545 486 962 1026 1044 72 11 511 13 2354 12 l2265 -1 67 -33z"/>
<path d="M4635 9923 c-233 -71 -407 -263 -442 -486 -9 -52 -8 -170 0 -217 31
-174 166 -351 328 -428 46 -22 108 -45 138 -52 41 -10 746 -12 3185 -12 1722
0 3147 3 3166 6 162 29 318 127 407 257 141 206 140 483 -3 689 -72 103 -176
181 -307 229 l-72 26 -3175 2 c-2825 1 -3181 -1 -3225 -14z"/>
<path d="M4648 7499 c-345 -81 -547 -456 -428 -795 66 -190 238 -342 439 -388
45 -10 544 -12 2596 -11 2403 1 2544 2 2605 19 68 18 168 67 209 101 76 63 95
84 139 149 73 110 97 194 96 341 0 104 -4 130 -27 195 -75 205 -253 357 -468
396 -24 4 -1180 8 -2568 8 -2288 1 -2531 0 -2593 -15z"/>
<path d="M4640 5074 c-275 -74 -467 -331 -454 -609 2 -44 5 -87 7 -95 51 -216
191 -380 388 -454 64 -24 163 -41 224 -39 17 1 1416 2 3110 3 2946 0 3083 1
3150 19 344 89 535 437 426 776 -58 179 -204 324 -391 388 l-65 22 -3170 2
c-2773 2 -3177 0 -3225 -13z"/>
</g>
</svg>
